<svg xmlns="http://www.w3.org/2000/svg" viewBox="0 0 3140 482" width="3140" height="482" font-family="'IBM Plex Sans','Segoe UI',Helvetica,Arial,sans-serif" font-size="12">
<title>OnlineCert Systemkarte · Systemlandschaft · Übersicht</title>
<defs><marker id="a" viewBox="0 0 10 10" refX="9" refY="5" markerWidth="7" markerHeight="7" orient="auto-start-reverse"><path d="M0,0 L10,5 L0,10 z" fill="#AEB8C4"/></marker></defs>
<rect width="3140" height="482" fill="#FFFFFF"/>
<text x="40" y="34" font-size="22" font-weight="600" fill="#1B2430">OnlineCert Systemkarte · Systemlandschaft</text>
<text x="40" y="56" font-size="12" fill="#5B6675">Übersicht: Gruppen, Bausteine als Liste, gebündelte Pfeile · Stand 18.09.2026 · Quelle: docs/zertifikatssystem/systemkarte.html</text>
<g transform="translate(40,104)">
<path d="M560,152 C620,152 610,152 670,152" fill="none" stroke="#AEB8C4" stroke-width="5" stroke-linecap="round" marker-end="url(#a)"/>
<text x="615" y="147" text-anchor="middle" font-size="10" fill="#5B6675" stroke="#FFFFFF" stroke-width="3" paint-order="stroke">7 Pfeile</text>
<path d="M560,152 C1285,152 1285,152 2010,152" fill="none" stroke="#AEB8C4" stroke-width="3" stroke-linecap="round" marker-end="url(#a)"/>
<text x="1285" y="147" text-anchor="middle" font-size="10" fill="#5B6675" stroke="#FFFFFF" stroke-width="3" paint-order="stroke">3 Pfeile</text>
<path d="M1230,152 C1620,152 1620,152 2010,152" fill="none" stroke="#AEB8C4" stroke-width="2" stroke-linecap="round" marker-end="url(#a)"/>
<text x="1620" y="147" text-anchor="middle" font-size="10" fill="#5B6675" stroke="#FFFFFF" stroke-width="3" paint-order="stroke">1 Pfeile</text>
<path d="M1230,152 C1290,152 1280,152 1340,152" fill="none" stroke="#AEB8C4" stroke-width="4.5" stroke-linecap="round" marker-end="url(#a)"/>
<text x="1285" y="147" text-anchor="middle" font-size="10" fill="#5B6675" stroke="#FFFFFF" stroke-width="3" paint-order="stroke">6 Pfeile</text>
<path d="M1230,152 C1955,152 1955,152 2680,152" fill="none" stroke="#AEB8C4" stroke-width="2.5" stroke-linecap="round" marker-end="url(#a)"/>
<text x="1955" y="147" text-anchor="middle" font-size="10" fill="#5B6675" stroke="#FFFFFF" stroke-width="3" paint-order="stroke">2 Pfeile</text>
<path d="M1900,152 C1960,152 1950,152 2010,152" fill="none" stroke="#AEB8C4" stroke-width="5.5" stroke-linecap="round" marker-end="url(#a)"/>
<text x="1955" y="147" text-anchor="middle" font-size="10" fill="#5B6675" stroke="#FFFFFF" stroke-width="3" paint-order="stroke">18 Pfeile</text>
<path d="M1900,152 C2290,152 2290,152 2680,152" fill="none" stroke="#AEB8C4" stroke-width="4" stroke-linecap="round" marker-end="url(#a)"/>
<text x="2290" y="147" text-anchor="middle" font-size="10" fill="#5B6675" stroke="#FFFFFF" stroke-width="3" paint-order="stroke">5 Pfeile</text>
<path d="M2680,152 C2290,152 2290,152 1900,152" fill="none" stroke="#AEB8C4" stroke-width="2" stroke-linecap="round" marker-end="url(#a)"/>
<text x="2290" y="147" text-anchor="middle" font-size="10" fill="#5B6675" stroke="#FFFFFF" stroke-width="3" paint-order="stroke">1 Pfeile</text>
<path d="M2680,152 C1955,152 1955,152 1230,152" fill="none" stroke="#AEB8C4" stroke-width="2" stroke-linecap="round" marker-end="url(#a)"/>
<text x="1955" y="147" text-anchor="middle" font-size="10" fill="#5B6675" stroke="#FFFFFF" stroke-width="3" paint-order="stroke">1 Pfeile</text>
<rect x="0" y="58" width="560" height="188" rx="14" fill="#FFF4DC" stroke="#B7791F" stroke-width="1.4"/>
<text x="16" y="84" font-size="17" font-weight="600" fill="#1B2430">Rollen</text>
<text x="16" y="101" font-size="11.5" fill="#5B6675">Rollen · 6 Bausteine</text>
<circle cx="22" cy="125" r="3" fill="#B7791F"/>
<text x="32" y="129" font-size="12" fill="#1B2430">Kunde</text>
<text x="32" y="144" font-family="'IBM Plex Mono',Menlo,Consolas,monospace" font-size="9.5" fill="#5B6675">Magic Link</text>
<circle cx="202" cy="125" r="3" fill="#B7791F"/>
<text x="212" y="129" font-size="12" fill="#1B2430">Auditor</text>
<text x="212" y="144" font-family="'IBM Plex Mono',Menlo,Consolas,monospace" font-size="9.5" fill="#5B6675">Google-Login</text>
<circle cx="382" cy="125" r="3" fill="#B7791F"/>
<text x="392" y="129" font-size="12" fill="#1B2430">Zertifizierungsausschuss</text>
<text x="392" y="144" font-family="'IBM Plex Mono',Menlo,Consolas,monospace" font-size="9.5" fill="#5B6675">Einmal-Link</text>
<circle cx="22" cy="183" r="3" fill="#B7791F"/>
<text x="32" y="187" font-size="12" fill="#1B2430">Backoffice</text>
<text x="32" y="202" font-family="'IBM Plex Mono',Menlo,Consolas,monospace" font-size="9.5" fill="#5B6675">2 h/Tag</text>
<circle cx="202" cy="183" r="3" fill="#B7791F"/>
<text x="212" y="187" font-size="12" fill="#1B2430">Öffentlichkeit</text>
<text x="212" y="202" font-family="'IBM Plex Mono',Menlo,Consolas,monospace" font-size="9.5" fill="#5B6675">ohne Login</text>
<circle cx="382" cy="183" r="3" fill="#B7791F"/>
<text x="392" y="187" font-size="12" fill="#1B2430">Projektleiter (Beratung)</text>
<text x="392" y="202" font-family="'IBM Plex Mono',Menlo,Consolas,monospace" font-size="9.5" fill="#5B6675">CRM</text>
<rect x="670" y="29" width="560" height="246" rx="14" fill="#DDF4F1" stroke="#0F766E" stroke-width="1.4"/>
<text x="686" y="55" font-size="17" font-weight="600" fill="#1B2430">Frontends auf Netlify</text>
<text x="686" y="72" font-size="11.5" fill="#5B6675">Frontends (Netlify) · 7 Bausteine</text>
<circle cx="692" cy="96" r="3" fill="#0F766E"/>
<text x="702" y="100" font-size="12" fill="#1B2430">Verifizierungsseite</text>
<text x="702" y="115" font-family="'IBM Plex Mono',Menlo,Consolas,monospace" font-size="9.5" fill="#5B6675">verify.{mandant}/v/{nr}</text>
<circle cx="872" cy="96" r="3" fill="#0F766E"/>
<text x="882" y="100" font-size="12" fill="#1B2430">Kundenportal „Mein Zert…</text>
<text x="882" y="115" font-family="'IBM Plex Mono',Menlo,Consolas,monospace" font-size="9.5" fill="#5B6675">/portal/{token}</text>
<circle cx="1052" cy="96" r="3" fill="#0F766E"/>
<text x="1062" y="100" font-size="12" fill="#1B2430">Auditor-App</text>
<text x="1062" y="115" font-family="'IBM Plex Mono',Menlo,Consolas,monospace" font-size="9.5" fill="#5B6675">Meine Audits / Audit</text>
<circle cx="692" cy="154" r="3" fill="#0F766E"/>
<text x="702" y="158" font-size="12" fill="#1B2430">Ausschuss-Seite</text>
<text x="702" y="173" font-family="'IBM Plex Mono',Menlo,Consolas,monospace" font-size="9.5" fill="#5B6675">drei Knöpfe</text>
<circle cx="872" cy="154" r="3" fill="#0F766E"/>
<text x="882" y="158" font-size="12" fill="#1B2430">Tagesliste &amp; Kundenakte</text>
<text x="882" y="173" font-family="'IBM Plex Mono',Menlo,Consolas,monospace" font-size="9.5" fill="#5B6675">/admin</text>
<circle cx="1052" cy="154" r="3" fill="#0F766E"/>
<text x="1062" y="158" font-size="12" fill="#1B2430">Erfassungs-App (CRM-Imp…</text>
<text x="1062" y="173" font-family="'IBM Plex Mono',Menlo,Consolas,monospace" font-size="9.5" fill="#5B6675">Kontakt-Kunden-Import</text>
<circle cx="692" cy="212" r="3" fill="#0F766E"/>
<text x="702" y="216" font-size="12" fill="#1B2430">Netlify Functions</text>
<text x="702" y="231" font-family="'IBM Plex Mono',Menlo,Consolas,monospace" font-size="9.5" fill="#5B6675">Token-Proxy</text>
<rect x="1340" y="0" width="560" height="304" rx="14" fill="#DEE8F7" stroke="#1B4F94" stroke-width="1.4"/>
<text x="1356" y="26" font-size="17" font-weight="600" fill="#1B2430">Backend Apps Script</text>
<text x="1356" y="43" font-size="11.5" fill="#5B6675">Backend (Apps Script) · 11 Bausteine</text>
<circle cx="1362" cy="67" r="3" fill="#1B4F94"/>
<text x="1372" y="71" font-size="12" fill="#1B2430">Regelwerk-Engine</text>
<text x="1372" y="86" font-family="'IBM Plex Mono',Menlo,Consolas,monospace" font-size="9.5" fill="#5B6675">Regelwerk-Blatt R01–R33</text>
<circle cx="1542" cy="67" r="3" fill="#1B4F94"/>
<text x="1552" y="71" font-size="12" fill="#1B2430">Statuslauf 05:30</text>
<text x="1552" y="86" font-family="'IBM Plex Mono',Menlo,Consolas,monospace" font-size="9.5" fill="#5B6675">täglich</text>
<circle cx="1722" cy="67" r="3" fill="#1B4F94"/>
<text x="1732" y="71" font-size="12" fill="#1B2430">Erinnerungslauf 06:00</text>
<text x="1732" y="86" font-family="'IBM Plex Mono',Menlo,Consolas,monospace" font-size="9.5" fill="#5B6675">täglich</text>
<circle cx="1362" cy="125" r="3" fill="#1B4F94"/>
<text x="1372" y="129" font-size="12" fill="#1B2430">Rechnungslauf 06:30</text>
<text x="1372" y="144" font-family="'IBM Plex Mono',Menlo,Consolas,monospace" font-size="9.5" fill="#5B6675">täglich</text>
<circle cx="1542" cy="125" r="3" fill="#1B4F94"/>
<text x="1552" y="129" font-size="12" fill="#1B2430">Warteschlange PDF/Mail</text>
<text x="1552" y="144" font-family="'IBM Plex Mono',Menlo,Consolas,monospace" font-size="9.5" fill="#5B6675">stündlich</text>
<circle cx="1722" cy="125" r="3" fill="#1B4F94"/>
<text x="1732" y="129" font-size="12" fill="#1B2430">Web-App doGet/doPost</text>
<text x="1732" y="144" font-family="'IBM Plex Mono',Menlo,Consolas,monospace" font-size="9.5" fill="#5B6675">verify, portal, decide, upl…</text>
<circle cx="1362" cy="183" r="3" fill="#1B4F94"/>
<text x="1372" y="187" font-size="12" fill="#1B2430">Nummernvergabe</text>
<text x="1372" y="202" font-family="'IBM Plex Mono',Menlo,Consolas,monospace" font-size="9.5" fill="#5B6675">LockService</text>
<circle cx="1542" cy="183" r="3" fill="#1B4F94"/>
<text x="1552" y="187" font-size="12" fill="#1B2430">Zertifikatserzeugung</text>
<text x="1552" y="202" font-family="'IBM Plex Mono',Menlo,Consolas,monospace" font-size="9.5" fill="#5B6675">Docs → PDF + Hash</text>
<circle cx="1722" cy="183" r="3" fill="#1B4F94"/>
<text x="1732" y="187" font-size="12" fill="#1B2430">Register-Snapshot 06:45</text>
<text x="1732" y="202" font-family="'IBM Plex Mono',Menlo,Consolas,monospace" font-size="9.5" fill="#5B6675">JSON</text>
<circle cx="1362" cy="241" r="3" fill="#1B4F94"/>
<text x="1372" y="245" font-size="12" fill="#1B2430">Health-Check 08:00</text>
<text x="1372" y="260" font-family="'IBM Plex Mono',Menlo,Consolas,monospace" font-size="9.5" fill="#5B6675">Heartbeat</text>
<circle cx="1542" cy="241" r="3" fill="#1B4F94"/>
<text x="1552" y="245" font-size="12" fill="#1B2430">Importlauf Billomat</text>
<text x="1552" y="260" font-family="'IBM Plex Mono',Menlo,Consolas,monospace" font-size="9.5" fill="#5B6675">einmalig</text>
<rect x="2010" y="29" width="560" height="246" rx="14" fill="#ECE5F9" stroke="#6D4BB5" stroke-width="1.4"/>
<text x="2026" y="55" font-size="17" font-weight="600" fill="#1B2430">Daten in Google Workspace</text>
<text x="2026" y="72" font-size="11.5" fill="#5B6675">Daten (Google Workspace) · 8 Bausteine</text>
<circle cx="2032" cy="96" r="3" fill="#6D4BB5"/>
<text x="2042" y="100" font-size="12" fill="#1B2430">CRM-Sheet</text>
<text x="2042" y="115" font-family="'IBM Plex Mono',Menlo,Consolas,monospace" font-size="9.5" fill="#5B6675">K-00123 · einziger Kundenst…</text>
<circle cx="2212" cy="96" r="3" fill="#6D4BB5"/>
<text x="2222" y="100" font-size="12" fill="#1B2430">Mandantendatei (Sheets)</text>
<text x="2222" y="115" font-family="'IBM Plex Mono',Menlo,Consolas,monospace" font-size="9.5" fill="#5B6675">je Mandant</text>
<circle cx="2392" cy="96" r="3" fill="#6D4BB5"/>
<text x="2402" y="100" font-size="12" fill="#1B2430">Register_oeffentlich</text>
<text x="2402" y="115" font-family="'IBM Plex Mono',Menlo,Consolas,monospace" font-size="9.5" fill="#5B6675">minimale Felder</text>
<circle cx="2032" cy="154" r="3" fill="#6D4BB5"/>
<text x="2042" y="158" font-size="12" fill="#1B2430">Drive-Kundenordner</text>
<text x="2042" y="173" font-family="'IBM Plex Mono',Menlo,Consolas,monospace" font-size="9.5" fill="#5B6675">Kunden/{K-Nr}/…</text>
<circle cx="2212" cy="154" r="3" fill="#6D4BB5"/>
<text x="2222" y="158" font-size="12" fill="#1B2430">Docs-Vorlagen</text>
<text x="2222" y="173" font-family="'IBM Plex Mono',Menlo,Consolas,monospace" font-size="9.5" fill="#5B6675">##platzhalter##</text>
<circle cx="2392" cy="154" r="3" fill="#6D4BB5"/>
<text x="2402" y="158" font-size="12" fill="#1B2430">Logos</text>
<text x="2402" y="173" font-family="'IBM Plex Mono',Menlo,Consolas,monospace" font-size="9.5" fill="#5B6675">Mandant × Norm × Sprache</text>
<circle cx="2032" cy="212" r="3" fill="#6D4BB5"/>
<text x="2042" y="216" font-size="12" fill="#1B2430">Google Kalender</text>
<text x="2042" y="231" font-family="'IBM Plex Mono',Menlo,Consolas,monospace" font-size="9.5" fill="#5B6675">Auditor + Kunde</text>
<circle cx="2212" cy="212" r="3" fill="#6D4BB5"/>
<text x="2222" y="216" font-size="12" fill="#1B2430">Gmail / MailApp</text>
<text x="2222" y="231" font-family="'IBM Plex Mono',Menlo,Consolas,monospace" font-size="9.5" fill="#5B6675">1.500 Empfänger/Tag</text>
<rect x="2680" y="58" width="380" height="188" rx="14" fill="#E2F1DC" stroke="#3F7D2F" stroke-width="1.4"/>
<text x="2696" y="84" font-size="17" font-weight="600" fill="#1B2430">Externe Dienste</text>
<text x="2696" y="101" font-size="11.5" fill="#5B6675">Externe Dienste · 4 Bausteine</text>
<circle cx="2702" cy="125" r="3" fill="#3F7D2F"/>
<text x="2712" y="129" font-size="12" fill="#1B2430">Billomat</text>
<text x="2712" y="144" font-family="'IBM Plex Mono',Menlo,Consolas,monospace" font-size="9.5" fill="#5B6675">REST-API, Business-Tarif</text>
<circle cx="2882" cy="125" r="3" fill="#3F7D2F"/>
<text x="2892" y="129" font-size="12" fill="#1B2430">Claude API</text>
<text x="2892" y="144" font-family="'IBM Plex Mono',Menlo,Consolas,monospace" font-size="9.5" fill="#5B6675">über Netlify Function</text>
<circle cx="2702" cy="183" r="3" fill="#3F7D2F"/>
<text x="2712" y="187" font-size="12" fill="#1B2430">GitHub</text>
<text x="2712" y="202" font-family="'IBM Plex Mono',Menlo,Consolas,monospace" font-size="9.5" fill="#5B6675">Monorepo onlinecert-system</text>
<circle cx="2882" cy="183" r="3" fill="#3F7D2F"/>
<text x="2892" y="187" font-size="12" fill="#1B2430">virtualbadge (Altbestan…</text>
<text x="2892" y="202" font-family="'IBM Plex Mono',Menlo,Consolas,monospace" font-size="9.5" fill="#5B6675">Migration</text>
</g>
<rect x="40" y="436" width="10" height="10" rx="2" fill="#B7791F"/>
<text x="55" y="445" font-size="11" fill="#5B6675">Rollen</text>
<rect x="114.2" y="436" width="10" height="10" rx="2" fill="#0F766E"/>
<text x="129.2" y="445" font-size="11" fill="#5B6675">Frontends (Netlify)</text>
<rect x="269" y="436" width="10" height="10" rx="2" fill="#1B4F94"/>
<text x="284" y="445" font-size="11" fill="#5B6675">Backend (Apps Script)</text>
<rect x="436.20000000000005" y="436" width="10" height="10" rx="2" fill="#6D4BB5"/>
<text x="451.20000000000005" y="445" font-size="11" fill="#5B6675">Daten (Google Workspace)</text>
<rect x="622" y="436" width="10" height="10" rx="2" fill="#3F7D2F"/>
<text x="637" y="445" font-size="11" fill="#5B6675">Externe Dienste</text>
<text x="752" y="445" font-size="11" fill="#5B6675">Pfeil = Abhängigkeit / löst aus</text>
</svg>